HIERARCHY
ROOT Hips
{
  OFFSET 76.347 92.6806 -49.6304
  CHANNELS 6 Xposition Yposition Zposition Zrotation Xrotation Yrotation
  JOINT RightUpLeg
  {
    OFFSET -9.2536 -1.56971 -0.009835
    CHANNELS 3 Zrotation Xrotation Yrotation
    JOINT RightLeg
    {
      OFFSET 0.003613 -41.8721 0.033096
      CHANNELS 3 Zrotation Xrotation Yrotation
      JOINT RightFoot
      {
        OFFSET 0.190023 -41.7536 -0.162077
        CHANNELS 3 Zrotation Xrotation Yrotation
        End Site
        {
          OFFSET 0 -7.69 17.5
        }
      }
    }
  }
  JOINT LeftUpLeg
  {
    OFFSET 9.25993 -1.60807 -0.003591
    CHANNELS 3 Zrotation Xrotation Yrotation
    JOINT LeftLeg
    {
      OFFSET 0.056181 -41.8768 -0.046918
      CHANNELS 3 Zrotation Xrotation Yrotation
      JOINT LeftFoot
      {
        OFFSET 0.206009 -42.0177 -0.454554
        CHANNELS 3 Zrotation Xrotation Yrotation
        End Site
        {
          OFFSET 0 -7.69 17.5
        }
      }
    }
  }
  JOINT Spine
  {
    OFFSET 0.055174 14.3087 0.014143
    CHANNELS 3 Zrotation Xrotation Yrotation
    JOINT Spine1
    {
      OFFSET 0.013927 9.70629 0.00545
      CHANNELS 3 Zrotation Xrotation Yrotation
      JOINT Spine2
      {
        OFFSET 0.014023 10.1242 0.014512
        CHANNELS 3 Zrotation Xrotation Yrotation
        JOINT Spine3
        {
          OFFSET 0.012086 9.7191 0.009001
          CHANNELS 3 Zrotation Xrotation Yrotation
          JOINT Neck
          {
            OFFSET 0.131707 10.3859 0.054297
            CHANNELS 3 Zrotation Xrotation Yrotation
            JOINT Head
            {
              OFFSET -0.005552 9.48088 0.122183
              CHANNELS 3 Zrotation Xrotation Yrotation
              End Site
              {
                OFFSET 0 15.95 0
              }
            }
          }
          JOINT RightShoulder
          {
            OFFSET -3.20137 6.92944 0.018295
            CHANNELS 3 Zrotation Xrotation Yrotation
            JOINT RightArm
            {
              OFFSET -12.7595 0.009634 0.00435
              CHANNELS 3 Zrotation Xrotation Yrotation
              JOINT RightForeArm
              {
                OFFSET -26.5076 -0.004773 -0.015002
                CHANNELS 3 Zrotation Xrotation Yrotation
                JOINT RightHand
                {
                  OFFSET -26.002 -5.9e-05 -0.011656
                  CHANNELS 3 Zrotation Xrotation Yrotation
                  JOINT RightHandThumb1
                  {
                    OFFSET -2.48905 0.190105 3.12053
                    CHANNELS 3 Zrotation Xrotation Yrotation
                    JOINT RightHandThumb2
                    {
                      OFFSET -3.68274 0 0
                      CHANNELS 3 Zrotation Xrotation Yrotation
                      JOINT RightHandThumb3
                      {
                        OFFSET -2.55832 0 0
                        CHANNELS 3 Zrotation Xrotation Yrotation
                        End Site
                        {
                          OFFSET -2.194 0 0
                        }
                      }
                    }
                  }
                  JOINT RightInHandIndex
                  {
                    OFFSET -3.22368 0.508421 1.97842
                    CHANNELS 3 Zrotation Xrotation Yrotation
                    JOINT RightHandIndex1
                    {
                      OFFSET -5.21684 -0.091368 0.999158
                      CHANNELS 3 Zrotation Xrotation Yrotation
                      JOINT RightHandIndex2
                      {
                        OFFSET -3.61937 0 0
                        CHANNELS 3 Zrotation Xrotation Yrotation
                        JOINT RightHandIndex3
                        {
                          OFFSET -2.0521 0 0
                          CHANNELS 3 Zrotation Xrotation Yrotation
                          End Site
                          {
                            OFFSET -1.805 0 0
                          }
                        }
                      }
                    }
                  }
                  JOINT RightInHandMiddle
                  {
                    OFFSET -3.38211 0.517263 0.756737
                    CHANNELS 3 Zrotation Xrotation Yrotation
                    JOINT RightHandMiddle1
                    {
                      OFFSET -5.17411 -0.084 0.313895
                      CHANNELS 3 Zrotation Xrotation Yrotation
                      JOINT RightHandMiddle2
                      {
                        OFFSET -3.94947 0 0
                        CHANNELS 3 Zrotation Xrotation Yrotation
                        JOINT RightHandMiddle3
                        {
                          OFFSET -2.47579 0 0
                          CHANNELS 3 Zrotation Xrotation Yrotation
                          End Site
                          {
                            OFFSET -1.975 0 0
                          }
                        }
                      }
                    }
                  }
                  JOINT RightInHandRing
                  {
                    OFFSET -3.36516 0.537895 -0.128947
                    CHANNELS 3 Zrotation Xrotation Yrotation
                    JOINT RightHandRing1
                    {
                      OFFSET -4.63474 -0.022105 -0.478947
                      CHANNELS 3 Zrotation Xrotation Yrotation
                      JOINT RightHandRing2
                      {
                        OFFSET -3.44238 0 0
                        CHANNELS 3 Zrotation Xrotation Yrotation
                        JOINT RightHandRing3
                        {
                          OFFSET -2.3881 0 0
                          CHANNELS 3 Zrotation Xrotation Yrotation
                          End Site
                          {
                            OFFSET -1.857 0 0
                          }
                        }
                      }
                    }
                  }
                  JOINT RightInHandPinky
                  {
                    OFFSET -3.16105 0.469368 -1.20179
                    CHANNELS 3 Zrotation Xrotation Yrotation
                    JOINT RightHandPinky1
                    {
                      OFFSET -4.14105 -0.022105 -1.09053
                      CHANNELS 3 Zrotation Xrotation Yrotation
                      JOINT RightHandPinky2
                      {
                        OFFSET -2.75653 0 0
                        CHANNELS 3 Zrotation Xrotation Yrotation
                        JOINT RightHandPinky3
                        {
                          OFFSET -1.74189 0 0
                          CHANNELS 3 Zrotation Xrotation Yrotation
                          End Site
                          {
                            OFFSET -1.645 0 0
                          }
                        }
                      }
                    }
                  }
                }
              }
            }
          }
          JOINT LeftShoulder
          {
            OFFSET 3.20143 6.91127 -0.000395
            CHANNELS 3 Zrotation Xrotation Yrotation
            JOINT LeftArm
            {
              OFFSET 12.7779 -0.028682 -0.037301
              CHANNELS 3 Zrotation Xrotation Yrotation
              JOINT LeftForeArm
              {
                OFFSET 26.4982 -0.116492 -0.017681
                CHANNELS 3 Zrotation Xrotation Yrotation
                JOINT LeftHand
                {
                  OFFSET 26.0046 -0.058588 -0.01331
                  CHANNELS 3 Zrotation Xrotation Yrotation
                  JOINT LeftHandThumb1
                  {
                    OFFSET 2.48905 0.190105 3.12053
                    CHANNELS 3 Zrotation Xrotation Yrotation
                    JOINT LeftHandThumb2
                    {
                      OFFSET 3.68274 0 0
                      CHANNELS 3 Zrotation Xrotation Yrotation
                      JOINT LeftHandThumb3
                      {
                        OFFSET 2.55832 0 0
                        CHANNELS 3 Zrotation Xrotation Yrotation
                        End Site
                        {
                          OFFSET 2.194 0 0
                        }
                      }
                    }
                  }
                  JOINT LeftInHandIndex
                  {
                    OFFSET 3.22368 0.508421 1.97842
                    CHANNELS 3 Zrotation Xrotation Yrotation
                    JOINT LeftHandIndex1
                    {
                      OFFSET 5.21684 -0.091368 0.999158
                      CHANNELS 3 Zrotation Xrotation Yrotation
                      JOINT LeftHandIndex2
                      {
                        OFFSET 3.61937 0 0
                        CHANNELS 3 Zrotation Xrotation Yrotation
                        JOINT LeftHandIndex3
                        {
                          OFFSET 2.0521 0 0
                          CHANNELS 3 Zrotation Xrotation Yrotation
                          End Site
                          {
                            OFFSET 1.805 0 0
                          }
                        }
                      }
                    }
                  }
                  JOINT LeftInHandMiddle
                  {
                    OFFSET 3.38211 0.517263 0.756737
                    CHANNELS 3 Zrotation Xrotation Yrotation
                    JOINT LeftHandMiddle1
                    {
                      OFFSET 5.17411 -0.084 0.313895
                      CHANNELS 3 Zrotation Xrotation Yrotation
                      JOINT LeftHandMiddle2
                      {
                        OFFSET 3.94947 0 0
                        CHANNELS 3 Zrotation Xrotation Yrotation
                        JOINT LeftHandMiddle3
                        {
                          OFFSET 2.47579 0 0
                          CHANNELS 3 Zrotation Xrotation Yrotation
                          End Site
                          {
                            OFFSET 1.975 0 0
                          }
                        }
                      }
                    }
                  }
                  JOINT LeftInHandRing
                  {
                    OFFSET 3.36516 0.537895 -0.128947
                    CHANNELS 3 Zrotation Xrotation Yrotation
                    JOINT LeftHandRing1
                    {
                      OFFSET 4.63474 -0.022105 -0.478947
                      CHANNELS 3 Zrotation Xrotation Yrotation
                      JOINT LeftHandRing2
                      {
                        OFFSET 3.44238 0 0
                        CHANNELS 3 Zrotation Xrotation Yrotation
                        JOINT LeftHandRing3
                        {
                          OFFSET 2.3881 0 0
                          CHANNELS 3 Zrotation Xrotation Yrotation
                          End Site
                          {
                            OFFSET 1.857 0 0
                          }
                        }
                      }
                    }
                  }
                  JOINT LeftInHandPinky
                  {
                    OFFSET 3.16105 0.469368 -1.20179
                    CHANNELS 3 Zrotation Xrotation Yrotation
                    JOINT LeftHandPinky1
                    {
                      OFFSET 4.14105 -0.022105 -1.09053
                      CHANNELS 3 Zrotation Xrotation Yrotation
                      JOINT LeftHandPinky2
                      {
                        OFFSET 2.75653 0 0
                        CHANNELS 3 Zrotation Xrotation Yrotation
                        JOINT LeftHandPinky3
                        {
                          OFFSET 1.74189 0 0
                          CHANNELS 3 Zrotation Xrotation Yrotation
                          End Site
                          {
                            OFFSET 1.645 0 0
                          }
                        }
                      }
                    }
                  }
                }
              }
            }
          }
        }
      }
    }
  }
}
MOTION
Frames: 3
Frame Time: 0.00833333
9.861613096200004520e+02 9.155913486470778651e+01 -4.789663568163038576e+01 2.420289335398997821e+01 -1.996564258899499222e+01 -1.248453229935040127e+02 4.390901616122066642e+00 -4.679851077072279253e+01 3.012523012448122373e+01 -5.940430335445422649e+00 1.384868806473469505e+01 7.526742391483845829e+00 9.071242498222151340e+00 2.629823392349301958e+00 5.020186026314545558e+01 1.515773855143356208e+01 -3.577424521365194465e+01 1.716166090199277505e+01 3.957020310089660597e+00 1.420032876185935145e+01 9.913333477111017089e+00 -1.375306382473853262e+01 4.103294828447516807e+00 1.106591661846276509e+02 -5.329455872742158817e+00 1.998833772047207447e+01 1.602079242336722587e+01 -8.835292330161524932e-01 5.933919500027877270e+00 4.017856039825055348e+00 -1.481105056078954707e+00 8.057501712452014075e+00 6.410127668116781585e+00 -2.613221103505231735e+00 -5.732885737672315241e-01 1.384512649924148464e+00 -4.138875469347775038e+01 -6.680933701236406286e+00 1.820519981502901885e+01 -2.826135725079270955e+01 5.028400827665963746e+00 1.476708098041321904e+01 9.515302568512163717e+00 -9.375403164570148107e+00 1.433000539814407759e+01 5.055527589182919712e+01 1.257783898821210755e+01 5.428907872735714335e+01 6.173491710314272041e+01 -8.354118606784973622e+01 6.450006809434488275e+01 7.538065963518353563e+00 -1.794739716486863301e+01 -4.730971519072976861e+00 2.818400000000000105e+01 1.072940000000000005e+01 1.915919999999999845e+01 7.648863130111490142e-15 1.089713060602657736e-18 -1.000000000000000000e+01 -5.108279960267316816e-16 1.484564594726357532e-15 -1.000000000000000000e+01 1.133345730570186045e-15 2.597127748180136615e-16 -1.696019932328051110e-16 1.998179999999999978e+01 8.718970000000000331e-01 2.396399999999999864e+00 2.400000000000000000e+01 3.960180605613832274e-16 -5.390563988779176066e-15 2.000000000000000000e+01 3.195770630729546992e-16 1.134840524493991504e-15 1.133345730570186045e-15 2.597127748180136615e-16 -1.696019932328051110e-16 2.000000000000000000e+01 1.710864748714354225e-16 -2.559527739916831591e-16 2.400000000000000000e+01 6.911429936788984663e-16 -9.285953838951231761e-16 2.000000000000000000e+01 2.049386499571395498e-15 3.506399110006316906e-15 1.133345730570186045e-15 2.597127748180136615e-16 -1.696019932328051110e-16 1.997479999999999833e+01 -1.025649999999999951e+00 -2.819380000000000219e+00 2.400000000000000000e+01 1.166385831930105945e-15 1.832710489252427745e-15 2.000000000000000000e+01 1.906136937604720502e-15 1.494571478943013040e-15 1.133345730570186045e-15 2.597127748180136615e-16 -1.696019932328051110e-16 1.978150000000000119e+01 -3.009479999999999933e+00 -8.305149999999999366e+00 2.400000000000000000e+01 3.605665031329836650e-15 -1.031326674702607272e-15 2.000000000000000000e+01 -2.237240580940734317e-15 -1.533023468755258721e-15 -2.401073118312535115e+01 -8.373646413871171035e+00 -1.380089334836075565e+01 -2.110685729108596576e+01 5.238850271596191988e+01 -8.551305565127063346e+01 -8.551406746410217252e+00 -3.761643069829293751e+00 1.252673379376731289e+00 5.512306983655411585e+01 -7.000523044399788830e+01 7.800448822609885369e+00 -2.818400000000000105e+01 1.072940000000000005e+01 -1.915919999999999845e+01 -2.526215334817929630e-15 -7.705914291944017376e-16 1.000000000000000000e+01 3.048517997866496937e-16 7.506719603705138370e-16 1.000000000000000000e+01 -9.307960907383369008e-16 -1.250739027886632231e-15 1.721996464698966361e-15 -1.998179999999999978e+01 8.718970000000000331e-01 -2.396399999999999864e+00 -2.400000000000000000e+01 3.806465083065340522e-15 4.089209522711401831e-15 -2.000000000000000000e+01 6.339496805252863398e-16 3.046729912584212602e-15 -9.307960907383369008e-16 -1.250739027886632231e-15 1.721996464698966361e-15 -2.000000000000000000e+01 -7.918841909384920380e-16 6.683440188467653031e-15 -2.400000000000000000e+01 -2.454007399228303809e-15 7.977222634318818807e-15 -2.000000000000000000e+01 -1.415121292020348481e-15 4.795042054921493684e-15 -9.307960907383369008e-16 -1.250739027886632231e-15 1.721996464698966361e-15 -1.997479999999999833e+01 -1.025649999999999951e+00 2.819380000000000219e+00 -2.400000000000000000e+01 1.198334931211458612e-15 5.089054728873379688e-15 -2.000000000000000000e+01 -1.311510270706030744e-16 8.309556980569365710e-16 -9.307960907383369008e-16 -1.250739027886632231e-15 1.721996464698966361e-15 -1.978150000000000119e+01 -3.009479999999999933e+00 8.305149999999999366e+00 -2.400000000000000000e+01 -2.281472956158432117e-16 4.902577475260554980e-15 -2.000000000000000000e+01 2.383891656077976719e-16 3.578989932391513300e-15
9.861652050912615550e+02 9.155697589298482342e+01 -4.793631863186134723e+01 2.422148033313731119e+01 -1.994823522589376097e+01 -1.249689118151466829e+02 4.510871289564986064e+00 -4.678963727705676234e+01 3.020745899593708828e+01 -5.927848515024950693e+00 1.381909039649536197e+01 7.536317318402121046e+00 9.072797769029037340e+00 2.664582285855765953e+00 5.025089102670622054e+01 1.525674764312049270e+01 -3.573884065345782091e+01 1.720514101758105241e+01 3.951120006864553780e+00 1.421998817867110887e+01 9.950146776146294059e+00 -1.377342191238755653e+01 4.124391100296969981e+00 1.107083957618212082e+02 -5.349085011470180895e+00 1.996463365541136881e+01 1.599028500262133967e+01 -8.892680160897854513e-01 5.927706048751605117e+00 4.008759409760801695e+00 -1.490547444173195846e+00 8.052238038598684255e+00 6.395650541095191599e+00 -2.612401867776337205e+00 -5.807754982473245509e-01 1.385840677115228958e+00 -4.136215382166042076e+01 -6.798294636481234221e+00 1.830479763165540774e+01 -2.825824963822242353e+01 5.011267540394983122e+00 1.482842758386552617e+01 9.510685886324072413e+00 -9.356546057305397568e+00 1.429954239874281896e+01 5.064847639983079119e+01 1.251053872767690045e+01 5.419230026374253129e+01 6.177815288797243198e+01 -8.350794049113314088e+01 6.470039552033946961e+01 7.484668118787873858e+00 -1.794325081080599560e+01 -4.707087143140510577e+00 2.818400000000000105e+01 1.072940000000000005e+01 1.915919999999999845e+01 7.681620739948774762e-15 -7.670724128228089998e-18 -1.000000000000000000e+01 -5.295171679800385167e-16 1.492044159289369369e-15 -1.000000000000000000e+01 1.136242254392803987e-15 2.531078926973298771e-16 -1.788666940755401066e-16 1.998179999999999978e+01 8.718970000000000331e-01 2.396399999999999864e+00 2.400000000000000000e+01 4.066182374536660678e-16 -5.362532383731698974e-15 2.000000000000000000e+01 3.220335659376023819e-16 1.191047655901237223e-15 1.136242254392803987e-15 2.531078926973298771e-16 -1.788666940755401066e-16 2.000000000000000000e+01 1.666791722221177604e-16 -2.440163092438526072e-16 2.400000000000000000e+01 6.934415389130039086e-16 -9.019649095249914200e-16 2.000000000000000000e+01 2.058676502825898157e-15 3.546260944258317700e-15 1.136242254392803987e-15 2.531078926973298771e-16 -1.788666940755401066e-16 1.997479999999999833e+01 -1.025649999999999951e+00 -2.819380000000000219e+00 2.400000000000000000e+01 1.164158941584629433e-15 1.869936507719913129e-15 2.000000000000000000e+01 1.905821123771516051e-15 1.539200354063487387e-15 1.136242254392803987e-15 2.531078926973298771e-16 -1.788666940755401066e-16 1.978150000000000119e+01 -3.009479999999999933e+00 -8.305149999999999366e+00 2.400000000000000000e+01 3.618106867177041241e-15 -9.928707014198255529e-16 2.000000000000000000e+01 -2.230505689421833604e-15 -1.492550542948019023e-15 -2.401369032530006820e+01 -8.411410298007941932e+00 -1.382182084320444027e+01 -2.104365713754563672e+01 5.239656568635327005e+01 -8.558044536803052438e+01 -8.492666365952553420e+00 -3.664571869730879783e+00 1.180372355705366694e+00 5.510395578111735659e+01 -6.976375092938882005e+01 7.872300566893750684e+00 -2.818400000000000105e+01 1.072940000000000005e+01 -1.915919999999999845e+01 -2.573946199788061315e-15 -7.665789351671217790e-16 1.000000000000000000e+01 2.788566018606213137e-16 7.503130802424224741e-16 1.000000000000000000e+01 -9.155480149064308608e-16 -1.254443094260109176e-15 1.730991914896306799e-15 -1.998179999999999978e+01 8.718970000000000331e-01 -2.396399999999999864e+00 -2.400000000000000000e+01 3.817359325867347332e-15 4.057071355532340720e-15 -2.000000000000000000e+01 6.264457557737646005e-16 3.046828832747960344e-15 -9.155480149064308608e-16 -1.254443094260109176e-15 1.730991914896306799e-15 -2.000000000000000000e+01 -7.962275845658677201e-16 6.665322589569317771e-15 -2.400000000000000000e+01 -2.457899719359850434e-15 7.929071227786783534e-15 -2.000000000000000000e+01 -1.416296238528705826e-15 4.773908405140660796e-15 -9.155480149064308608e-16 -1.254443094260109176e-15 1.730991914896306799e-15 -1.997479999999999833e+01 -1.025649999999999951e+00 2.819380000000000219e+00 -2.400000000000000000e+01 1.212405816210372832e-15 5.048728636119668689e-15 -2.000000000000000000e+01 -1.302287707938579176e-16 7.999513950157776692e-16 -9.155480149064308608e-16 -1.254443094260109176e-15 1.730991914896306799e-15 -1.978150000000000119e+01 -3.009479999999999933e+00 8.305149999999999366e+00 -2.400000000000000000e+01 -2.256731966914236789e-16 4.869956868527279251e-15 -2.000000000000000000e+01 2.541227349012052062e-16 3.535291861947486125e-15
9.861689132800565858e+02 9.155437797305975778e+01 -4.798304051238303458e+01 2.424210540479240095e+01 -1.992774962509120940e+01 -1.251107232471731834e+02 4.649508578187166563e+00 -4.677524231878070538e+01 3.030271778086833123e+01 -5.913811288644656550e+00 1.378622470735547267e+01 7.548109647414067425e+00 9.073023320723445195e+00 2.702786032936998595e+00 5.030600076784968167e+01 1.537008602159789206e+01 -3.569439905512213329e+01 1.725311078241410456e+01 3.944010163229061394e+00 1.424218327881822965e+01 9.992893854865739556e+00 -1.379708970418750624e+01 4.150306349966051300e+00 1.107652697654821878e+02 -5.370818907805174902e+00 1.993610002900589961e+01 1.595371424094947521e+01 -8.957069925551987000e-01 5.919963422920898388e+00 3.997923814408978593e+00 -1.501151341817655194e+00 8.045570212671924182e+00 6.378404135141048314e+00 -2.611287113484505262e+00 -5.893441373007272110e-01 1.387445090835236705e+00 -4.132835371822815773e+01 -6.933126901824060440e+00 1.842272032347084476e+01 -2.825372988092853532e+01 4.992978990149452123e+00 1.490050677765007769e+01 9.505019615224448160e+00 -9.334153619448418482e+00 1.426328077467819888e+01 5.075669713741539368e+01 1.243089832728104938e+01 5.407778749562183407e+01 6.182427135098593851e+01 -8.346053212733754378e+01 6.493538286785707214e+01 7.420006206530994852e+00 -1.793796357705868871e+01 -4.676730650918705656e+00 2.818400000000000105e+01 1.072940000000000005e+01 1.915919999999999845e+01 7.717237388354536755e-15 -1.756738198241601978e-17 -1.000000000000000000e+01 -5.510946836818607510e-16 1.500292431337820458e-15 -1.000000000000000000e+01 1.139622780759373344e-15 2.451051129648530966e-16 -1.896764683782867717e-16 1.998179999999999978e+01 8.718970000000000331e-01 2.396399999999999864e+00 2.400000000000000000e+01 4.182282499147026529e-16 -5.329919149785121186e-15 2.000000000000000000e+01 3.242819265665153158e-16 1.254058872732956458e-15 1.139622780759373344e-15 2.451051129648530966e-16 -1.896764683782867717e-16 2.000000000000000000e+01 1.614405154824718876e-16 -2.305457632843779496e-16 2.400000000000000000e+01 6.961980135138327107e-16 -8.708178415468960968e-16 2.000000000000000000e+01 2.068456191090386011e-15 3.589875335676828379e-15 1.139622780759373344e-15 2.451051129648530966e-16 -1.896764683782867717e-16 1.997479999999999833e+01 -1.025649999999999951e+00 -2.819380000000000219e+00 2.400000000000000000e+01 1.161273156959730917e-15 1.911565094217565663e-15 2.000000000000000000e+01 1.904975165683247149e-15 1.589334831119192515e-15 1.139622780759373344e-15 2.451051129648530966e-16 -1.896764683782867717e-16 1.978150000000000119e+01 -3.009479999999999933e+00 -8.305149999999999366e+00 2.400000000000000000e+01 3.631489457159889590e-15 -9.490073500792628667e-16 2.000000000000000000e+01 -2.222810289307918395e-15 -1.446818828352888726e-15 -2.401551406502396091e+01 -8.455085309876913868e+00 -1.384581956605845576e+01 -2.096977629171661306e+01 5.240419717071908678e+01 -8.566088757315168323e+01 -8.423666072885030331e+00 -3.548331100927258674e+00 1.089253992084432410e+00 5.508505773397013172e+01 -6.946657136366754060e+01 7.958996272946810002e+00 -2.818400000000000105e+01 1.072940000000000005e+01 -1.915919999999999845e+01 -2.627423355545844210e-15 -7.619362424354170403e-16 1.000000000000000000e+01 2.498026147384304466e-16 7.497693014804371970e-16 1.000000000000000000e+01 -8.982676623731550390e-16 -1.258491147455645166e-15 1.740913803235952229e-15 -1.998179999999999978e+01 8.718970000000000331e-01 -2.396399999999999864e+00 -2.400000000000000000e+01 3.829156864889435480e-15 4.020711089218475118e-15 -2.000000000000000000e+01 6.185585383359799656e-16 3.043759537210477069e-15 -8.982676623731550390e-16 -1.258491147455645166e-15 1.740913803235952229e-15 -2.000000000000000000e+01 -8.013520594507107472e-16 6.643616750347457198e-15 -2.400000000000000000e+01 -2.461630400931532369e-15 7.873589391904737319e-15 -2.000000000000000000e+01 -1.417159633063300136e-15 4.748484708204107801e-15 -8.982676623731550390e-16 -1.258491147455645166e-15 1.740913803235952229e-15 -1.997479999999999833e+01 -1.025649999999999951e+00 2.819380000000000219e+00 -2.400000000000000000e+01 1.227967693612757071e-15 5.003349961575764988e-15 -2.000000000000000000e+01 -1.289321165933585329e-16 7.641034806131690546e-16 -8.982676623731550390e-16 -1.258491147455645166e-15 1.740913803235952229e-15 -1.978150000000000119e+01 -3.009479999999999933e+00 8.305149999999999366e+00 -2.400000000000000000e+01 -2.229482075167260020e-16 4.833236980982476730e-15 -2.000000000000000000e+01 2.720730992886866218e-16 3.484628895584516138e-15
